<?xml version="1.0" encoding="UTF-8" standalone="no"?>
<!-- Generator: Adobe Illustrator 21.1.0, SVG Export Plug-In . SVG Version: 6.00 Build 0)  -->

<svg
   xmlns:dc="http://purl.org/dc/elements/1.1/"
   xmlns:cc="http://creativecommons.org/ns#"
   xmlns:rdf="http://www.w3.org/1999/02/22-rdf-syntax-ns#"
   xmlns:svg="http://www.w3.org/2000/svg"
   xmlns="http://www.w3.org/2000/svg"
   xmlns:inkscape="http://www.inkscape.org/namespaces/inkscape"
   version="1.1"
   id="Слой_1"
   x="0px"
   y="0px"
   viewBox="0 0 700 700"
   style="enable-background:new 0 0 700 700;"
   xml:space="preserve"
   inkscape:version="0.91 r13725"
   ><metadata
     id="metadata28"><rdf:RDF><cc:Work
         rdf:about=""><dc:format>image/svg+xml</dc:format><dc:type
           rdf:resource="http://purl.org/dc/dcmitype/StillImage" /><dc:title></dc:title></cc:Work></rdf:RDF></metadata><defs
     id="defs26"><filter
       inkscape:collect="always"
       style="color-interpolation-filters:sRGB"
       id="filter4251"
       x="-0.024"
       width="1.048"
       y="-0.024"
       height="1.048"><feGaussianBlur
         inkscape:collect="always"
         stdDeviation="2"
         id="feGaussianBlur4253" /></filter></defs><style
     type="text/css"
     id="style3">
	.st0{fill:#FFFFFF;}
	.st1{fill:none;stroke:url(#SVGID_1_);stroke-width:60;stroke-miterlimit:10;}
	.st2{fill:#8B44AC;}
	.st3{fill:#5D2F75;stroke:#FFFFFF;stroke-width:10;stroke-miterlimit:10;}
</style><g
     id="outline"
     style="stroke:#5d2f75;stroke-width:5;stroke-miterlimit:4;stroke-dasharray:none;stroke-opacity:0.15251303;filter:url(#filter4251)"><path
       transform="matrix(0,1,-1,0,0,0)"
       style="fill:#ffffff;stroke:#5d2f75;stroke-width:5;stroke-miterlimit:4;stroke-dasharray:none;stroke-opacity:0.15251303"
       d="m 504.3,-353.10001 a 175.2,175.2 0 0 1 -175.19999,175.2 175.2,175.2 0 0 1 -175.2,-175.2 A 175.2,175.2 0 0 1 329.10001,-528.3 175.2,175.2 0 0 1 504.3,-353.10001 Z"
       id="circle4193"
       inkscape:connector-curvature="0" /><path
       style="fill:#ffffff;stroke:#5d2f75;stroke-width:5;stroke-miterlimit:4;stroke-dasharray:none;stroke-opacity:0.15251303"
       d="m 438.39999,324.39999 89.90001,0 0,142.2 -89.90001,0 z"
       id="rect4195"
       inkscape:connector-curvature="0" /><path
       style="fill:#ffffff;stroke:#5d2f75;stroke-width:5;stroke-miterlimit:4;stroke-dasharray:none;stroke-opacity:0.15251303"
       d="m 350,443.79999 133.39999,0 0,60.5 -133.39999,0 z"
       id="rect4197"
       inkscape:connector-curvature="0" /><path
       style="fill:#ffffff;stroke:#5d2f75;stroke-width:5;stroke-miterlimit:4;stroke-dasharray:none;stroke-opacity:0.15251303"
       d="m 528.3,461.5 a 42.799999,42.799999 0 0 1 -42.8,42.8 42.799999,42.799999 0 0 1 -42.8,-42.8 42.799999,42.799999 0 0 1 42.8,-42.8 42.799999,42.799999 0 0 1 42.8,42.8 z"
       id="circle4199"
       inkscape:connector-curvature="0" /></g><circle
     class="st0"
     cx="329.10001"
     cy="-353.10001"
     r="175.2"
     id="circle5"
     transform="matrix(0,1,-1,0,0,0)"
     style="fill:#ffffff" /><rect
     x="438.4"
     y="324.4"
     class="st0"
     width="89.9"
     height="142.2"
     id="rect7" /><rect
     x="350"
     y="443.8"
     class="st0"
     width="133.4"
     height="60.5"
     id="rect9" /><circle
     class="st0"
     cx="485.5"
     cy="461.5"
     r="42.8"
     id="circle11" /><linearGradient
     id="SVGID_1_"
     gradientUnits="userSpaceOnUse"
     x1="271.5434"
     y1="410.71"
     x2="434.7436"
     y2="247.5097"><stop
       offset="0"
       style="stop-color:#623079"
       id="stop14" /><stop
       offset="0.6784"
       style="stop-color:#8B44AC"
       id="stop16" /></linearGradient><circle
     class="st1"
     cx="353.1"
     cy="329.1"
     r="85.4"
     id="circle18" /><rect
     x="408.5"
     y="327.6"
     class="st2"
     width="60"
     height="116.2"
     id="rect20" /><circle
     class="st3"
     cx="233.3"
     cy="329.1"
     r="26.1"
     id="circle22" /></svg>
