<svg xmlns="http://www.w3.org/2000/svg" xmlns:svg="http://www.w3.org/2000/svg" id="Слой_1" x="0" y="0" version="1.1" viewBox="0 0 700 700" xml:space="preserve" style="enable-background:new 0 0 700 700"><metadata id="metadata28"/><defs id="defs26"><filter style="color-interpolation-filters:sRGB" id="filter4251" width="1.048" height="1.048" x="-.024" y="-.024"><feGaussianBlur id="feGaussianBlur4253" stdDeviation="2"/></filter></defs><style id="style3" type="text/css">.st0{fill:#fff}.st1{fill:none;stroke:url(#SVGID_1_);stroke-width:60;stroke-miterlimit:10}.st2{fill:#8b44ac}.st3{fill:#5d2f75;stroke:#fff;stroke-width:10;stroke-miterlimit:10}</style><g id="outline" transform="matrix(1.8121887,0,0,1.8121887,-288.24059,-244.20317)" style="stroke:#5d2f75;stroke-width:5;stroke-miterlimit:4;stroke-dasharray:none;stroke-opacity:.15251303;filter:url(#filter4251)"><path style="fill:#fff;stroke:#5d2f75;stroke-width:5;stroke-miterlimit:4;stroke-dasharray:none;stroke-opacity:.15251303" id="circle4193" d="m 504.3,-353.10001 a 175.2,175.2 0 0 1 -175.19999,175.2 175.2,175.2 0 0 1 -175.2,-175.2 A 175.2,175.2 0 0 1 329.10001,-528.3 175.2,175.2 0 0 1 504.3,-353.10001 Z" transform="matrix(0,1,-1,0,0,0)"/><path style="fill:#fff;stroke:#5d2f75;stroke-width:5;stroke-miterlimit:4;stroke-dasharray:none;stroke-opacity:.15251303" id="rect4195" d="m 438.39999,324.39999 89.90001,0 0,142.2 -89.90001,0 z"/><path style="fill:#fff;stroke:#5d2f75;stroke-width:5;stroke-miterlimit:4;stroke-dasharray:none;stroke-opacity:.15251303" id="rect4197" d="m 350,443.79999 133.39999,0 0,60.5 -133.39999,0 z"/><path style="fill:#fff;stroke:#5d2f75;stroke-width:5;stroke-miterlimit:4;stroke-dasharray:none;stroke-opacity:.15251303" id="circle4199" d="m 528.3,461.5 a 42.799999,42.799999 0 0 1 -42.8,42.8 42.799999,42.799999 0 0 1 -42.8,-42.8 42.799999,42.799999 0 0 1 42.8,-42.8 42.799999,42.799999 0 0 1 42.8,42.8 z"/></g><circle id="circle5" cx="352.188" cy="-351.643" r="317.495" class="st0" transform="matrix(0,1,-1,0,0,0)" style="fill:#fff"/><rect id="rect7" width="162.916" height="257.693" x="506.223" y="343.671" class="st0" style="fill:#fff"/><rect id="rect9" width="241.746" height="109.637" x="346.026" y="560.046" class="st0" style="fill:#fff"/><circle id="circle11" cx="591.577" cy="592.122" r="77.562" class="st0" style="fill:#fff"/><linearGradient id="SVGID_1_" x1="271.543" x2="434.744" y1="410.71" y2="247.51" gradientTransform="matrix(1.8121889,0,0,1.8121889,-288.24061,-244.20319)" gradientUnits="userSpaceOnUse"><stop style="stop-color:#623079" id="stop14" offset="0"/><stop style="stop-color:#8b44ac" id="stop16" offset=".678"/></linearGradient><circle id="circle18" cx="351.643" cy="352.188" r="154.761" class="st1" style="fill:none;stroke:url(#SVGID_1_);stroke-width:108.73133087;stroke-miterlimit:10"/><rect id="rect20" width="108.731" height="210.576" x="452.039" y="349.47" class="st2" style="fill:#8b44ac"/><circle id="circle22" cx="134.543" cy="352.188" r="47.298" class="st3" style="fill:#5d2f75;stroke:#fff;stroke-width:18.12188721;stroke-miterlimit:10"/></svg>