<svg xmlns="http://www.w3.org/2000/svg" xmlns:svg="http://www.w3.org/2000/svg" id="Слой_1" x="0" y="0" version="1.1" viewBox="0 0 700 700" xml:space="preserve" style="enable-background:new 0 0 700 700"><metadata id="metadata28"/><defs id="defs26"><filter style="color-interpolation-filters:sRGB" id="filter4251" width="1.048" height="1.048" x="-.024" y="-.024"><feGaussianBlur id="feGaussianBlur4253" stdDeviation="2"/></filter></defs><style id="style3" type="text/css">.st0{fill:#fff}.st1{fill:none;stroke:url(#SVGID_1_);stroke-width:60;stroke-miterlimit:10}.st2{fill:#8b44ac}.st3{fill:#5d2f75;stroke:#fff;stroke-width:10;stroke-miterlimit:10}</style><g id="outline" style="stroke:#5d2f75;stroke-width:5;stroke-miterlimit:4;stroke-dasharray:none;stroke-opacity:.15251303;filter:url(#filter4251)"><path style="fill:#fff;stroke:#5d2f75;stroke-width:5;stroke-miterlimit:4;stroke-dasharray:none;stroke-opacity:.15251303" id="circle4193" d="m 504.3,-353.10001 a 175.2,175.2 0 0 1 -175.19999,175.2 175.2,175.2 0 0 1 -175.2,-175.2 A 175.2,175.2 0 0 1 329.10001,-528.3 175.2,175.2 0 0 1 504.3,-353.10001 Z" transform="matrix(0,1,-1,0,0,0)"/><path style="fill:#fff;stroke:#5d2f75;stroke-width:5;stroke-miterlimit:4;stroke-dasharray:none;stroke-opacity:.15251303" id="rect4195" d="m 438.39999,324.39999 89.90001,0 0,142.2 -89.90001,0 z"/><path style="fill:#fff;stroke:#5d2f75;stroke-width:5;stroke-miterlimit:4;stroke-dasharray:none;stroke-opacity:.15251303" id="rect4197" d="m 350,443.79999 133.39999,0 0,60.5 -133.39999,0 z"/><path style="fill:#fff;stroke:#5d2f75;stroke-width:5;stroke-miterlimit:4;stroke-dasharray:none;stroke-opacity:.15251303" id="circle4199" d="m 528.3,461.5 a 42.799999,42.799999 0 0 1 -42.8,42.8 42.799999,42.799999 0 0 1 -42.8,-42.8 42.799999,42.799999 0 0 1 42.8,-42.8 42.799999,42.799999 0 0 1 42.8,42.8 z"/></g><circle id="circle5" cx="329.1" cy="-353.1" r="175.2" class="st0" transform="matrix(0,1,-1,0,0,0)" style="fill:#fff"/><rect id="rect7" width="89.9" height="142.2" x="438.4" y="324.4" class="st0"/><rect id="rect9" width="133.4" height="60.5" x="350" y="443.8" class="st0"/><circle id="circle11" cx="485.5" cy="461.5" r="42.8" class="st0"/><linearGradient id="SVGID_1_" x1="271.543" x2="434.744" y1="410.71" y2="247.51" gradientUnits="userSpaceOnUse"><stop style="stop-color:#623079" id="stop14" offset="0"/><stop style="stop-color:#8b44ac" id="stop16" offset=".678"/></linearGradient><circle id="circle18" cx="353.1" cy="329.1" r="85.4" class="st1"/><rect id="rect20" width="60" height="116.2" x="408.5" y="327.6" class="st2"/><circle id="circle22" cx="233.3" cy="329.1" r="26.1" class="st3"/></svg>